<svg width="50" height="50" viewBox="0 0 50 50" fill="none" xmlns="http://www.w3.org/2000/svg">
<rect width="50" height="50" rx="14" fill="black"/>
<mask id="path-2-outside-1_6_103" maskUnits="userSpaceOnUse" x="9" y="12" width="32" height="25" fill="black">
<rect fill="white" x="9" y="12" width="32" height="25"/>
<path d="M10.7074 13.804H15.1404L18.5814 26.762L19.0774 29.149H19.3254L19.9764 26.762L23.1694 16.78H27.0754L30.2994 26.762L30.9194 29.118H31.1674L31.6324 26.762L34.8564 13.804H39.2894L33.3994 36H29.3694L25.8974 25.305L25.2464 22.856H24.9984L24.3474 25.305L20.8754 36H16.8454L10.7074 13.804Z"/>
</mask>
<path d="M10.7074 13.804H15.1404L18.5814 26.762L19.0774 29.149H19.3254L19.9764 26.762L23.1694 16.78H27.0754L30.2994 26.762L30.9194 29.118H31.1674L31.6324 26.762L34.8564 13.804H39.2894L33.3994 36H29.3694L25.8974 25.305L25.2464 22.856H24.9984L24.3474 25.305L20.8754 36H16.8454L10.7074 13.804Z" fill="url(#paint0_linear_6_103)"/>
<path d="M10.7074 13.804V12.804H9.39336L9.7436 14.0705L10.7074 13.804ZM15.1404 13.804L16.1069 13.5473L15.9095 12.804H15.1404V13.804ZM18.5814 26.762L19.5605 26.5586L19.5549 26.5318L19.5479 26.5053L18.5814 26.762ZM19.0774 29.149L18.0983 29.3524L18.2639 30.149H19.0774V29.149ZM19.3254 29.149V30.149H20.0892L20.2902 29.4121L19.3254 29.149ZM19.9764 26.762L19.024 26.4573L19.0174 26.478L19.0117 26.4989L19.9764 26.762ZM23.1694 16.78V15.78H22.4394L22.217 16.4753L23.1694 16.78ZM27.0754 16.78L28.027 16.4727L27.8033 15.78H27.0754V16.78ZM30.2994 26.762L31.2665 26.5075L31.2595 26.4809L31.251 26.4547L30.2994 26.762ZM30.9194 29.118L29.9524 29.3725L30.1485 30.118H30.9194V29.118ZM31.1674 29.118V30.118H31.9894L32.1485 29.3116L31.1674 29.118ZM31.6324 26.762L30.662 26.5206L30.6561 26.5443L30.6514 26.5684L31.6324 26.762ZM34.8564 13.804V12.804H34.0747L33.886 13.5626L34.8564 13.804ZM39.2894 13.804L40.256 14.0605L40.5894 12.804H39.2894V13.804ZM33.3994 36V37H34.1687L34.366 36.2565L33.3994 36ZM29.3694 36L28.4183 36.3088L28.6427 37H29.3694V36ZM25.8974 25.305L24.931 25.5619L24.9379 25.588L24.9463 25.6138L25.8974 25.305ZM25.2464 22.856L26.2129 22.5991L26.0153 21.856H25.2464V22.856ZM24.9984 22.856V21.856H24.2295L24.032 22.5991L24.9984 22.856ZM24.3474 25.305L25.2986 25.6138L25.3069 25.588L25.3139 25.5619L24.3474 25.305ZM20.8754 36V37H21.6022L21.8266 36.3088L20.8754 36ZM16.8454 36L15.8816 36.2665L16.0844 37H16.8454V36ZM10.7074 14.804H15.1404V12.804H10.7074V14.804ZM14.1739 14.0607L17.6149 27.0187L19.5479 26.5053L16.1069 13.5473L14.1739 14.0607ZM17.6023 26.9654L18.0983 29.3524L20.0565 28.9456L19.5605 26.5586L17.6023 26.9654ZM19.0774 30.149H19.3254V28.149H19.0774V30.149ZM20.2902 29.4121L20.9412 27.0251L19.0117 26.4989L18.3607 28.8859L20.2902 29.4121ZM20.9289 27.0667L24.1219 17.0847L22.217 16.4753L19.024 26.4573L20.9289 27.0667ZM23.1694 17.78H27.0754V15.78H23.1694V17.78ZM26.1238 17.0873L29.3478 27.0693L31.251 26.4547L28.027 16.4727L26.1238 17.0873ZM29.3324 27.0165L29.9524 29.3725L31.8865 28.8635L31.2665 26.5075L29.3324 27.0165ZM30.9194 30.118H31.1674V28.118H30.9194V30.118ZM32.1485 29.3116L32.6135 26.9556L30.6514 26.5684L30.1864 28.9244L32.1485 29.3116ZM32.6028 27.0034L35.8268 14.0454L33.886 13.5626L30.662 26.5206L32.6028 27.0034ZM34.8564 14.804H39.2894V12.804H34.8564V14.804ZM38.3229 13.5475L32.4329 35.7435L34.366 36.2565L40.256 14.0605L38.3229 13.5475ZM33.3994 35H29.3694V37H33.3994V35ZM30.3206 35.6912L26.8486 24.9962L24.9463 25.6138L28.4183 36.3088L30.3206 35.6912ZM26.8639 25.0481L26.2129 22.5991L24.28 23.1129L24.931 25.5619L26.8639 25.0481ZM25.2464 21.856H24.9984V23.856H25.2464V21.856ZM24.032 22.5991L23.381 25.0481L25.3139 25.5619L25.9649 23.1129L24.032 22.5991ZM23.3963 24.9962L19.9243 35.6912L21.8266 36.3088L25.2986 25.6138L23.3963 24.9962ZM20.8754 35H16.8454V37H20.8754V35ZM17.8093 35.7335L11.6713 13.5375L9.7436 14.0705L15.8816 36.2665L17.8093 35.7335Z" fill="#E9E9E9" mask="url(#path-2-outside-1_6_103)"/>
<defs>
<linearGradient id="paint0_linear_6_103" x1="10" y1="25" x2="40" y2="25" gradientUnits="userSpaceOnUse">
<stop stop-color="#C6A9D5"/>
<stop offset="0.525" stop-color="#D085CB"/>
<stop offset="1" stop-color="#EE6565"/>
</linearGradient>
</defs>
</svg>
